<svg width="41" height="41" viewBox="0 0 41 41" fill="none" xmlns="http://www.w3.org/2000/svg">
<path d="M19.9541 7.45193C20.0181 7.21835 20.3436 7.20311 20.4291 7.42968L23.7173 16.1403C23.7556 16.2416 23.8547 16.3068 23.9629 16.3018L33.2634 15.8662C33.5053 15.8548 33.6204 16.1597 33.4313 16.3111L26.1631 22.1301C26.0786 22.1978 26.0472 22.3122 26.0855 22.4136L29.3737 31.1242C29.4593 31.3508 29.2049 31.5544 29.0025 31.4214L21.2223 26.3071C21.1318 26.2476 21.0133 26.2532 20.9287 26.3209L13.6605 32.1399C13.4715 32.2913 13.1992 32.1123 13.2632 31.8787L15.7229 22.8989C15.7515 22.7944 15.7096 22.6834 15.6191 22.6239L7.83887 17.5097C7.6365 17.3766 7.72259 17.0624 7.9645 17.051L17.2649 16.6154C17.3731 16.6104 17.4657 16.5362 17.4944 16.4318L19.9541 7.45193Z" fill="#750021"/>
<path d="M16.1284 8.27171C16.1222 8.02961 16.4294 7.92095 16.5767 8.11314L22.242 15.5018C22.3079 15.5878 22.4216 15.6215 22.5237 15.5854L31.3015 12.4806C31.5298 12.3999 31.728 12.6585 31.5908 12.858L26.3144 20.5292C26.253 20.6184 26.2561 20.7371 26.322 20.823L31.9873 28.2117C32.1346 28.4039 31.95 28.6723 31.7178 28.6035L22.7915 25.9559C22.6877 25.9251 22.5758 25.9646 22.5145 26.0539L17.2381 33.7251C17.1008 33.9246 16.7884 33.832 16.7822 33.5899L16.5418 24.2823C16.539 24.1741 16.4669 24.0799 16.363 24.0491L7.43676 21.4015C7.20458 21.3326 7.19617 21.0069 7.42449 20.9261L16.2022 17.8214C16.3043 17.7853 16.3715 17.6875 16.3688 17.5792L16.1284 8.27171Z" fill="#750021"/>
<path d="M12.2795 10.4982C12.1944 10.2715 12.4491 10.0683 12.6512 10.2016L20.423 15.3287C20.5134 15.3884 20.6319 15.383 20.7166 15.3155L27.9944 9.50846C28.1837 9.35741 28.4557 9.53685 28.3913 9.77032L25.9167 18.7461C25.888 18.8505 25.9297 18.9616 26.0201 19.0212L33.7919 24.1483C33.994 24.2817 33.9074 24.5958 33.6655 24.6068L24.3643 25.027C24.2561 25.0318 24.1634 25.1058 24.1346 25.2103L21.66 34.186C21.5957 34.4195 21.2701 34.4342 21.185 34.2075L17.9111 25.4914C17.8731 25.39 17.774 25.3247 17.6658 25.3296L8.36468 25.7498C8.12275 25.7607 8.00817 25.4557 8.19747 25.3046L15.4753 19.4976C15.5599 19.43 15.5915 19.3157 15.5534 19.2143L12.2795 10.4982Z" fill="#750021"/>
<path d="M9.64246 13.4342C9.49493 13.2422 9.67936 12.9735 9.9116 13.0422L18.8401 15.6821C18.944 15.7128 19.0558 15.6731 19.1171 15.5838L24.3869 7.90805C24.5239 7.70839 24.8364 7.80079 24.8429 8.04288L25.0913 17.3502C25.0942 17.4585 25.1665 17.5526 25.2703 17.5833L34.1989 20.2231C34.4311 20.2918 34.4398 20.6175 34.2115 20.6985L25.4365 23.8109C25.3344 23.8471 25.2673 23.9449 25.2702 24.0531L25.5186 33.3605C25.525 33.6026 25.2179 33.7115 25.0704 33.5194L19.3987 26.1357C19.3328 26.0498 19.219 26.0161 19.1169 26.0523L10.3419 29.1647C10.1136 29.2456 9.91515 28.9872 10.0522 28.7876L15.322 21.1118C15.3833 21.0225 15.3801 20.9039 15.3141 20.818L9.64246 13.4342Z" fill="#750021"/>
<path d="M15.6584 22.502L19.0178 25.0243L26.5986 17.9231" stroke="#F8F2EC" stroke-width="2"/>
</svg>
