<svg width="162" height="29" viewBox="0 0 162 29" fill="none" xmlns="http://www.w3.org/2000/svg">
<path d="M8.44 28.68C6.97333 28.68 5.48 28.4933 3.96 28.12C2.46667 27.7733 1.21333 27.3067 0.2 26.72L0.44 21.16H1.6L2.84 23.92C3.21333 24.6933 3.6 25.3333 4 25.84C4.4 26.3467 4.93333 26.7333 5.6 27C6.05333 27.1867 6.48 27.32 6.88 27.4C7.30667 27.4533 7.77333 27.48 8.28 27.48C9.90667 27.48 11.1867 27.0667 12.12 26.24C13.08 25.3867 13.56 24.2667 13.56 22.88C13.56 21.6267 13.2267 20.64 12.56 19.92C11.92 19.2 10.88 18.5067 9.44 17.84L7.8 17.12C5.56 16.1333 3.78667 14.9867 2.48 13.68C1.2 12.3733 0.56 10.64 0.56 8.48C0.56 6.88 0.96 5.52 1.76 4.4C2.58667 3.25333 3.72 2.37333 5.16 1.76C6.6 1.14667 8.28 0.839999 10.2 0.839999C11.6133 0.839999 12.9333 1.02667 14.16 1.4C15.4133 1.77333 16.5067 2.28 17.44 2.92L17.16 7.88H16L14.52 4.88C14.0933 4 13.68 3.37333 13.28 3C12.9067 2.6 12.44 2.34666 11.88 2.24C11.56 2.18667 11.28 2.14667 11.04 2.12C10.8267 2.09333 10.5333 2.08 10.16 2.08C8.85333 2.08 7.72 2.46667 6.76 3.24C5.82667 3.98667 5.36 5.02667 5.36 6.36C5.36 7.64 5.72 8.68 6.44 9.48C7.16 10.28 8.2 10.9867 9.56 11.6L11.36 12.36C13.9467 13.48 15.8 14.68 16.92 15.96C18.04 17.2133 18.6 18.8267 18.6 20.8C18.6 23.1467 17.7067 25.0533 15.92 26.52C14.16 27.96 11.6667 28.68 8.44 28.68ZM30.5822 8.2C32.2622 8.2 33.7022 8.54667 34.9022 9.24C36.1022 9.93333 37.0222 10.8933 37.6622 12.12C38.3289 13.32 38.6622 14.7067 38.6622 16.28C38.6622 16.6267 38.6489 16.96 38.6222 17.28C38.5955 17.5733 38.5422 17.8533 38.4622 18.12H26.4222C26.4489 20.8667 26.9555 22.84 27.9422 24.04C28.9555 25.24 30.4222 25.84 32.3422 25.84C33.6755 25.84 34.7555 25.6267 35.5822 25.2C36.4089 24.7467 37.1689 24.12 37.8622 23.32L38.5022 23.92C37.7022 25.3867 36.6089 26.5333 35.2222 27.36C33.8622 28.16 32.2355 28.56 30.3422 28.56C28.4489 28.56 26.7822 28.16 25.3422 27.36C23.9022 26.56 22.7689 25.4133 21.9422 23.92C21.1422 22.4 20.7422 20.5867 20.7422 18.48C20.7422 16.2933 21.2089 14.44 22.1422 12.92C23.1022 11.4 24.3289 10.24 25.8222 9.44C27.3422 8.61333 28.9289 8.2 30.5822 8.2ZM30.3822 9.36C29.6089 9.36 28.9289 9.58667 28.3422 10.04C27.7822 10.4667 27.3289 11.24 26.9822 12.36C26.6622 13.4533 26.4755 15 26.4222 17H33.5822C33.8755 14.3067 33.7689 12.36 33.2622 11.16C32.7555 9.96 31.7955 9.36 30.3822 9.36ZM40.6994 28V27.24L41.2994 27.04C41.8327 26.9067 42.1927 26.68 42.3794 26.36C42.5927 26.04 42.6994 25.6133 42.6994 25.08V13.36C42.6727 12.7733 42.566 12.3333 42.3794 12.04C42.1927 11.72 41.8327 11.5067 41.2994 11.4L40.6994 11.24V10.52L47.2194 8.2L47.6994 8.64L48.0594 12.16V12.44C48.4594 11.6933 48.966 11 49.5794 10.36C50.1927 9.72 50.8594 9.2 51.5794 8.8C52.2994 8.4 53.0194 8.2 53.7394 8.2C54.7527 8.2 55.5127 8.46667 56.0194 9C56.526 9.53333 56.7794 10.2133 56.7794 11.04C56.7794 11.9467 56.526 12.64 56.0194 13.12C55.5127 13.5733 54.8994 13.8 54.1794 13.8C53.1127 13.8 52.1927 13.32 51.4194 12.36L51.3394 12.28C51.0727 11.96 50.766 11.7867 50.4194 11.76C50.0994 11.7067 49.7794 11.8667 49.4594 12.24C49.1927 12.5067 48.9394 12.8267 48.6994 13.2C48.486 13.5467 48.286 13.96 48.0994 14.44V24.92C48.0994 25.4267 48.206 25.8533 48.4194 26.2C48.6327 26.52 48.9927 26.7467 49.4994 26.88L50.6994 27.24V28H40.6994ZM67.4963 8.2C69.1763 8.2 70.6163 8.54667 71.8163 9.24C73.0163 9.93333 73.9363 10.8933 74.5763 12.12C75.2429 13.32 75.5763 14.7067 75.5763 16.28C75.5763 16.6267 75.5629 16.96 75.5363 17.28C75.5096 17.5733 75.4563 17.8533 75.3763 18.12H63.3363C63.3629 20.8667 63.8696 22.84 64.8563 24.04C65.8696 25.24 67.3363 25.84 69.2563 25.84C70.5896 25.84 71.6696 25.6267 72.4963 25.2C73.3229 24.7467 74.0829 24.12 74.7763 23.32L75.4163 23.92C74.6163 25.3867 73.5229 26.5333 72.1363 27.36C70.7763 28.16 69.1496 28.56 67.2563 28.56C65.3629 28.56 63.6963 28.16 62.2563 27.36C60.8163 26.56 59.6829 25.4133 58.8563 23.92C58.0563 22.4 57.6563 20.5867 57.6563 18.48C57.6563 16.2933 58.1229 14.44 59.0563 12.92C60.0163 11.4 61.2429 10.24 62.7363 9.44C64.2563 8.61333 65.8429 8.2 67.4963 8.2ZM67.2963 9.36C66.5229 9.36 65.8429 9.58667 65.2563 10.04C64.6963 10.4667 64.2429 11.24 63.8963 12.36C63.5763 13.4533 63.3896 15 63.3363 17H70.4963C70.7896 14.3067 70.6829 12.36 70.1763 11.16C69.6696 9.96 68.7096 9.36 67.2963 9.36ZM77.6134 28V27.24L78.2534 27.08C79.1334 26.8133 79.5734 26.16 79.5734 25.12V13.32C79.5468 12.76 79.4534 12.3333 79.2934 12.04C79.1334 11.72 78.7868 11.5067 78.2534 11.4L77.6134 11.24V10.52L84.0934 8.2L84.5734 8.64L84.8534 11.12C85.8134 10.2667 86.8801 9.57333 88.0534 9.04C89.2534 8.48 90.4268 8.2 91.5734 8.2C93.3334 8.2 94.6801 8.68 95.6134 9.64C96.5734 10.6 97.0534 12.0667 97.0534 14.04V25.16C97.0534 26.2 97.5334 26.8533 98.4934 27.12L98.9334 27.24V28H89.7334V27.24L90.3334 27.08C91.2134 26.7867 91.6534 26.1333 91.6534 25.12V13.24C91.6534 12.3067 91.4534 11.6267 91.0534 11.2C90.6534 10.7733 89.9868 10.56 89.0534 10.56C87.7468 10.56 86.3868 11.1333 84.9734 12.28V25.16C84.9734 26.2 85.4401 26.8533 86.3734 27.12L86.7734 27.24V28H77.6134ZM110.582 28.56C108.609 28.56 106.876 28.1467 105.382 27.32C103.916 26.4933 102.769 25.32 101.942 23.8C101.142 22.28 100.742 20.4667 100.742 18.36C100.742 16.2533 101.169 14.44 102.022 12.92C102.902 11.4 104.076 10.24 105.542 9.44C107.036 8.61333 108.716 8.2 110.582 8.2C112.449 8.2 114.116 8.61333 115.582 9.44C117.076 10.24 118.249 11.4 119.102 12.92C119.982 14.4133 120.422 16.2267 120.422 18.36C120.422 20.4667 120.009 22.2933 119.182 23.84C118.382 25.36 117.249 26.5333 115.782 27.36C114.316 28.16 112.582 28.56 110.582 28.56ZM110.582 27.44C111.542 27.44 112.316 27.1867 112.902 26.68C113.516 26.1467 113.956 25.2267 114.222 23.92C114.489 22.6133 114.622 20.7867 114.622 18.44C114.622 16.0667 114.489 14.2267 114.222 12.92C113.956 11.5867 113.516 10.6667 112.902 10.16C112.316 9.62667 111.542 9.36 110.582 9.36C109.622 9.36 108.849 9.62667 108.262 10.16C107.676 10.6667 107.236 11.5867 106.942 12.92C106.676 14.2267 106.542 16.0667 106.542 18.44C106.542 20.7867 106.676 22.6133 106.942 23.92C107.236 25.2267 107.676 26.1467 108.262 26.68C108.849 27.1867 109.622 27.44 110.582 27.44ZM130.907 28.12L123.867 11.2C123.573 10.4533 123.053 9.97333 122.307 9.76L121.467 9.56V8.8H131.587V9.56L130.547 9.8C129.693 10.0133 129.44 10.56 129.787 11.44L133.987 22.6L137.907 11.52C138.04 11.0667 138.067 10.7067 137.987 10.44C137.933 10.1467 137.68 9.94667 137.227 9.84L136.067 9.56V8.8H142.147V9.56L140.827 9.88C140.053 10.0667 139.533 10.5467 139.267 11.32L133.227 28.12H130.907ZM148.101 28.56C146.581 28.56 145.288 28.1333 144.221 27.28C143.181 26.4 142.661 25.1467 142.661 23.52C142.661 22.24 143.274 21.0667 144.501 20C145.754 18.9067 147.714 18.1067 150.381 17.6C150.834 17.4933 151.354 17.4 151.941 17.32C152.554 17.2133 153.154 17.1067 153.741 17V14.16C153.741 12.3467 153.514 11.0933 153.061 10.4C152.608 9.70667 151.888 9.36 150.901 9.36H150.781C150.168 9.36 149.674 9.56 149.301 9.96C148.954 10.3333 148.728 10.96 148.621 11.84L148.501 12.36C148.421 13.4267 148.141 14.2133 147.661 14.72C147.181 15.2 146.581 15.44 145.861 15.44C145.194 15.44 144.634 15.24 144.181 14.84C143.754 14.4133 143.541 13.8667 143.541 13.2C143.541 12.1067 143.914 11.1867 144.661 10.44C145.408 9.69333 146.394 9.13333 147.621 8.76C148.874 8.38667 150.221 8.2 151.661 8.2C154.034 8.2 155.848 8.77333 157.101 9.92C158.354 11.0667 158.981 12.9333 158.981 15.52V24.44C158.981 25.5867 159.528 26.16 160.621 26.16H161.541L161.941 26.6C161.461 27.2133 160.928 27.68 160.341 28C159.754 28.3467 158.954 28.52 157.941 28.52C156.794 28.52 155.874 28.2533 155.181 27.72C154.514 27.16 154.074 26.4267 153.861 25.52C153.008 26.4267 152.168 27.16 151.341 27.72C150.514 28.28 149.434 28.56 148.101 28.56ZM150.421 26C150.954 26 151.461 25.88 151.941 25.64C152.421 25.4 153.021 25 153.741 24.44V18.04C153.048 18.1467 152.341 18.28 151.621 18.44C150.474 18.7067 149.541 19.2 148.821 19.92C148.128 20.64 147.781 21.6133 147.781 22.84C147.781 23.9067 148.021 24.7067 148.501 25.24C149.008 25.7467 149.648 26 150.421 26Z" fill="white"/>
</svg>
